<svg width="11" height="11" viewBox="0 0 11 11" xmlns="http://www.w3.org/2000/svg">
<path d="M5.34733 0.217678L10.2378 5.09367C10.2959 5.15172 10.3369 5.2146 10.3609 5.28232C10.3853 5.35004 10.3975 5.4226 10.3975 5.5C10.3975 5.5774 10.3853 5.64996 10.3609 5.71768C10.3369 5.7854 10.2959 5.84829 10.2378 5.90633L5.34733 10.7968C5.21188 10.9323 5.04258 11 4.83941 11C4.63625 11 4.4621 10.9274 4.31699 10.7823C4.17187 10.6372 4.09931 10.4679 4.09931 10.2744C4.09931 10.0809 4.17187 9.91161 4.31699 9.76649L8.58348 5.5L4.31699 1.23351C4.18154 1.09807 4.11382 0.931275 4.11382 0.73314C4.11382 0.534617 4.18638 0.362797 4.3315 0.217678C4.47662 0.0725592 4.64592 -1.82821e-07 4.83941 -1.76671e-07C5.0329 -1.70521e-07 5.20221 0.0725592 5.34733 0.217678Z"/>
<path d="M1.24772 0.217678L6.13822 5.09367C6.19627 5.15172 6.23729 5.2146 6.26128 5.28232C6.28566 5.35004 6.29785 5.4226 6.29785 5.5C6.29785 5.5774 6.28566 5.64996 6.26128 5.71768C6.23729 5.7854 6.19627 5.84829 6.13822 5.90633L1.24772 10.7968C1.11228 10.9323 0.94297 11 0.739804 11C0.536638 11 0.362495 10.9274 0.217377 10.7823C0.072258 10.6372 -0.000301344 10.4679 -0.000301338 10.2744C-0.000301332 10.0809 0.072258 9.91161 0.217377 9.76649L4.48387 5.5L0.217377 1.23351C0.0819329 1.09807 0.0142105 0.931275 0.0142106 0.73314C0.0142106 0.534617 0.0867699 0.362797 0.231889 0.217678C0.377007 0.0725592 0.546313 -1.82821e-07 0.739804 -1.76671e-07C0.933296 -1.70521e-07 1.1026 0.0725592 1.24772 0.217678Z"/>
</svg>
