<?xml version="1.0" encoding="utf-8"?><svg xmlns="http://www.w3.org/2000/svg" xmlns:xlink="http://www.w3.org/1999/xlink"><symbol viewBox="0 0 11 11" id="breadcrumbs_arrow" xmlns="http://www.w3.org/2000/svg"><path d="m5.347.218 4.89 4.876c.059.058.1.12.124.188.024.068.037.14.037.218 0 .077-.013.15-.037.218a.505.505 0 0 1-.123.188l-4.89 4.89a.689.689 0 0 1-.509.204.713.713 0 0 1-.522-.218.696.696 0 0 1-.218-.508c0-.193.073-.362.218-.508L8.583 5.5 4.317 1.234a.68.68 0 0 1-.203-.5c0-.2.072-.371.218-.516A.696.696 0 0 1 4.838 0c.194 0 .363.073.508.218Z"/><path d="m1.248.218 4.89 4.876c.058.058.1.12.123.188.025.068.037.14.037.218 0 .077-.012.15-.037.218a.506.506 0 0 1-.123.188l-4.89 4.89A.689.689 0 0 1 .74 11a.713.713 0 0 1-.523-.218.696.696 0 0 1-.217-.508c0-.193.072-.362.217-.508L4.484 5.5.217 1.234a.68.68 0 0 1-.203-.5c0-.2.073-.371.218-.516A.696.696 0 0 1 .74 0c.193 0 .363.073.508.218Z"/></symbol><symbol viewBox="0 0 320 512" id="facebook" xmlns="http://www.w3.org/2000/svg"><!--! Font Awesome Pro 6.4.0 by @fontawesome - https://fontawesome.com License - https://fontawesome.com/license (Commercial License) Copyright 2023 Fonticons, Inc.--><path d="m279.14 288 14.22-92.66h-88.91v-60.13c0-25.35 12.42-50.06 52.24-50.06h40.42V6.26S260.43 0 225.36 0c-73.22 0-121.08 44.38-121.08 124.72v70.62H22.89V288h81.39v224h100.17V288z"/></symbol><symbol viewBox="0 0 44 44" style="enable-background:new 0 0 44 44" id="search" xmlns="http://www.w3.org/2000/svg"><path d="M32.5 30c2.494-3.129 4-7.654 4-12 0-10.05-8.139-18-18-18C8.638 0 .5 7.95.5 18s8.138 18 18 18c4.193 0 7.953-1.534 11-4l11 12 3-3-11-11zm-14 2c-7.658 0-14-6.196-14-14s6.342-14 14-14 14 6.196 14 14-6.342 14-14 14z"/></symbol><symbol viewBox="0 0 448 512" id="telegram" xmlns="http://www.w3.org/2000/svg"><path d="m446.7 98.6-67.6 318.8c-5.1 22.5-18.4 28.1-37.3 17.5l-103-75.9-49.7 47.8c-5.5 5.5-10.1 10.1-20.7 10.1l7.4-104.9 190.9-172.5c8.3-7.4-1.8-11.5-12.9-4.1L117.8 284 16.2 252.2c-22.1-6.9-22.5-22.1 4.6-32.7L418.2 66.4c18.4-6.9 34.5 4.1 28.5 32.2z"/></symbol></svg>