<?xml version="1.0" encoding="utf-8"?><svg xmlns="http://www.w3.org/2000/svg" xmlns:xlink="http://www.w3.org/1999/xlink"><symbol viewBox="0 0 11 11" id="breadcrumbs_arrow" xmlns="http://www.w3.org/2000/svg"><path d="m5.347.218 4.89 4.876c.059.058.1.12.124.188.024.068.037.14.037.218 0 .077-.013.15-.037.218a.505.505 0 0 1-.123.188l-4.89 4.89a.689.689 0 0 1-.509.204.713.713 0 0 1-.522-.218.696.696 0 0 1-.218-.508c0-.193.073-.362.218-.508L8.583 5.5 4.317 1.234a.68.68 0 0 1-.203-.5c0-.2.072-.371.218-.516A.696.696 0 0 1 4.838 0c.194 0 .363.073.508.218Z"/><path d="m1.248.218 4.89 4.876c.058.058.1.12.123.188.025.068.037.14.037.218 0 .077-.012.15-.037.218a.506.506 0 0 1-.123.188l-4.89 4.89A.689.689 0 0 1 .74 11a.713.713 0 0 1-.523-.218.696.696 0 0 1-.217-.508c0-.193.072-.362.217-.508L4.484 5.5.217 1.234a.68.68 0 0 1-.203-.5c0-.2.073-.371.218-.516A.696.696 0 0 1 .74 0c.193 0 .363.073.508.218Z"/></symbol><symbol viewBox="0 0 320 512" id="facebook" xmlns="http://www.w3.org/2000/svg"><!--! Font Awesome Pro 6.4.0 by @fontawesome - https://fontawesome.com License - https://fontawesome.com/license (Commercial License) Copyright 2023 Fonticons, Inc.--><path d="m279.14 288 14.22-92.66h-88.91v-60.13c0-25.35 12.42-50.06 52.24-50.06h40.42V6.26S260.43 0 225.36 0c-73.22 0-121.08 44.38-121.08 124.72v70.62H22.89V288h81.39v224h100.17V288z"/></symbol><symbol viewBox="0 0 640 512" id="google" xmlns="http://www.w3.org/2000/svg"><path d="M386.061 228.496c1.834 9.692 3.143 19.384 3.143 31.956C389.204 370.205 315.599 448 204.8 448c-106.084 0-192-85.915-192-192s85.916-192 192-192c51.864 0 95.083 18.859 128.611 50.292l-52.126 50.03c-14.145-13.621-39.028-29.599-76.485-29.599-65.484 0-118.92 54.221-118.92 121.277 0 67.056 53.436 121.277 118.92 121.277 75.961 0 104.513-54.745 108.965-82.773H204.8v-66.009h181.261zm185.406 6.437V179.2h-56.001v55.733h-55.733v56.001h55.733v55.733h56.001v-55.733H627.2v-56.001h-55.733z"/></symbol><symbol viewBox="0 0 44 44" style="enable-background:new 0 0 44 44" id="search" xmlns="http://www.w3.org/2000/svg"><path d="M32.5 30c2.494-3.129 4-7.654 4-12 0-10.05-8.139-18-18-18C8.638 0 .5 7.95.5 18s8.138 18 18 18c4.193 0 7.953-1.534 11-4l11 12 3-3-11-11zm-14 2c-7.658 0-14-6.196-14-14s6.342-14 14-14 14 6.196 14 14-6.342 14-14 14z"/></symbol><symbol viewBox="0 0 448 512" id="telegram" xmlns="http://www.w3.org/2000/svg"><path d="m446.7 98.6-67.6 318.8c-5.1 22.5-18.4 28.1-37.3 17.5l-103-75.9-49.7 47.8c-5.5 5.5-10.1 10.1-20.7 10.1l7.4-104.9 190.9-172.5c8.3-7.4-1.8-11.5-12.9-4.1L117.8 284 16.2 252.2c-22.1-6.9-22.5-22.1 4.6-32.7L418.2 66.4c18.4-6.9 34.5 4.1 28.5 32.2z"/></symbol><symbol viewBox="0 0 512 512" id="twitter" xmlns="http://www.w3.org/2000/svg"><path d="M459.37 151.716c.325 4.548.325 9.097.325 13.645 0 138.72-105.583 298.558-298.558 298.558-59.452 0-114.68-17.219-161.137-47.106 8.447.974 16.568 1.299 25.34 1.299 49.055 0 94.213-16.568 130.274-44.832-46.132-.975-84.792-31.188-98.112-72.772 6.498.974 12.995 1.624 19.818 1.624 9.421 0 18.843-1.3 27.614-3.573-48.081-9.747-84.143-51.98-84.143-102.985v-1.299c13.969 7.797 30.214 12.67 47.431 13.319-28.264-18.843-46.781-51.005-46.781-87.391 0-19.492 5.197-37.36 14.294-52.954 51.655 63.675 129.3 105.258 216.365 109.807-1.624-7.797-2.599-15.918-2.599-24.04 0-57.828 46.782-104.934 104.934-104.934 30.213 0 57.502 12.67 76.67 33.137 23.715-4.548 46.456-13.32 66.599-25.34-7.798 24.366-24.366 44.833-46.132 57.827 21.117-2.273 41.584-8.122 60.426-16.243-14.292 20.791-32.161 39.308-52.628 54.253z"/></symbol><symbol viewBox="0 0 512 512" id="viber" xmlns="http://www.w3.org/2000/svg"><path d="M280 0c128.1 0 232 103.9 232 232 0 13.3-10.7 24-24 24s-24-10.7-24-24c0-101.6-82.4-184-184-184-13.3 0-24-10.7-24-24s10.7-24 24-24zm8 192a32 32 0 1 1 0 64 32 32 0 1 1 0-64zm-32-72c0-13.3 10.7-24 24-24 75.1 0 136 60.9 136 136 0 13.3-10.7 24-24 24s-24-10.7-24-24c0-48.6-39.4-88-88-88-13.3 0-24-10.7-24-24zM117.5 1.4c19.4-5.3 39.7 4.6 47.4 23.2l40 96c6.8 16.3 2.1 35.2-11.6 46.3L144 207.3c33.3 70.4 90.3 127.4 160.7 160.7l40.3-49.3c11.2-13.7 30-18.4 46.3-11.6l96 40c18.6 7.7 28.5 28 23.2 47.4l-24 88C481.8 499.9 466 512 448 512 200.6 512 0 311.4 0 64c0-18 12.1-33.8 29.5-38.6l88-24z"/></symbol></svg>